<svg xmlns="http://www.w3.org/2000/svg" xmlns:xlink="http://www.w3.org/1999/xlink"
    viewBox="0 0 383 69">
    <defs>
        <path id="siimpiqt4a" d="M0 0L45.768 0 45.768 68.697 0 68.697z" />
        <path id="li75ygdccc" d="M0 0L19.021 0 19.021 19.019 0 19.019z" />
    </defs>
    <g fill="none" fill-rule="evenodd">
        <g>
            <g>
                <mask id="4y5t48j0gb" fill="#fff">
                    <use xlink:href="#siimpiqt4a" />
                </mask>
                <path fill="#2D333C"
                    d="M5.052 53.038c4.748 4.95 11.314 8.284 18.287 8.284 8.689 0 13.84-4.344 13.84-10.809 0-6.769-4.848-8.89-11.113-11.72l-9.496-4.141c-6.164-2.627-13.438-7.375-13.438-17.073C3.132 7.477 12.022 0 24.046 0c7.879 0 14.852 3.335 19.498 8.185L39.1 13.638C35.057 9.8 30.106 7.376 24.046 7.376c-7.476 0-12.428 3.737-12.428 9.698 0 6.365 5.86 8.788 11.013 11.011l9.497 4.04c7.678 3.335 13.64 7.88 13.64 17.68 0 10.506-8.689 18.892-22.631 18.892-9.296 0-17.378-3.839-23.138-9.8l5.053-5.859z"
                    mask="url(#4y5t48j0gb)" />
            </g>
            <path fill="#2D333C"
                d="M56.191 18.387h8.387V48.39c0 9.193 2.727 13.134 9.194 13.134 5.05 0 8.586-2.526 13.235-8.285V18.387h8.284v49.097H88.42l-.707-7.678h-.303c-4.546 5.355-9.395 8.891-16.165 8.891-10.406 0-15.054-6.668-15.054-19.195V18.387zM108.843 56.372c4.243 3.434 8.587 5.86 14.448 5.86 6.465 0 9.698-3.436 9.698-7.679 0-5.05-5.86-7.273-11.214-9.295-6.972-2.525-14.65-5.858-14.65-14.141 0-7.88 6.263-13.942 16.872-13.942 6.164 0 11.519 2.525 15.255 5.556l-3.94 5.253c-3.334-2.526-6.87-4.344-11.213-4.344-6.164 0-8.992 3.334-8.992 7.072 0 4.546 5.355 6.364 10.91 8.486 7.074 2.626 14.954 5.556 14.954 14.85 0 7.98-6.366 14.65-17.985 14.65-6.97 0-13.638-2.93-18.286-6.77l4.143-5.556zM154.794 25.156h-7.274v-6.264l7.679-.506 1.01-13.739h6.97v13.74h13.236v6.77h-13.236v27.275c0 6.062 1.92 9.496 7.578 9.496 1.718 0 3.941-.708 5.557-1.313l1.616 6.264c-2.727.909-6.061 1.82-9.092 1.82-10.508 0-14.044-6.67-14.044-16.368V25.156zM217.666 39.299c0-10-4.446-15.557-12.124-15.557-6.869 0-13.134 5.657-14.143 15.557h26.267zM205.34 17.175c12.527 0 19.6 8.991 19.6 23.033 0 1.718-.102 3.334-.303 4.546H191.5c.606 10.608 6.97 17.275 16.366 17.275 4.649 0 8.589-1.516 12.224-3.84l2.93 5.456c-4.242 2.728-9.496 5.053-16.164 5.053-13.134 0-23.54-9.598-23.54-25.66 0-16.063 10.81-25.863 22.025-25.863zM236.27 18.387h6.872l.705 7.072h.305c4.243-4.648 9.395-8.283 15.254-8.283 7.477 0 11.518 3.534 13.539 9.393 5.15-5.555 10.202-9.393 16.164-9.393 10.102 0 14.953 6.667 14.953 19.195v31.113h-8.285V37.481c0-9.193-2.93-13.133-9.091-13.133-3.84 0-7.78 2.525-12.327 7.576v35.56h-8.284V37.481c0-9.193-2.93-13.133-9.193-13.133-3.638 0-7.78 2.525-12.328 7.576v35.56h-8.283V18.387zM330.803 62.029c4.748 0 8.69-2.324 13.439-6.566V41.824c-16.47 2.02-22.026 6.062-22.026 12.326 0 5.555 3.738 7.879 8.587 7.879m13.439-25.659c0-6.264-2.124-12.326-10.105-12.326-5.758 0-10.81 2.628-14.65 5.253l-3.334-5.758c4.548-2.93 11.417-6.364 19.298-6.364 12.023 0 17.075 7.981 17.075 20.205v30.104h-6.873l-.705-5.859h-.202c-4.748 3.84-10.204 7.072-16.266 7.072-8.284 0-14.447-5.153-14.447-13.941 0-10.709 9.295-16.064 30.209-18.386" />
            <g transform="translate(363.979225, 49.980907)">
                <mask id="zozf5h98rd" fill="#fff">
                    <use xlink:href="#li75ygdccc" />
                </mask>
                <path fill="#00B0FD"
                    d="M9.574 0c5.362 0 9.447 4.024 9.447 9.509 0 5.487-4.085 9.51-9.447 9.51C4.213 19.02 0 14.996 0 9.51 0 4.024 4.213 0 9.574 0"
                    mask="url(#zozf5h98rd)" />
            </g>
        </g>
    </g>
</svg>