<svg fill="none" xmlns="http://www.w3.org/2000/svg" viewBox="12 19 32 32" width="40" height="40">
    <g clip-path="url(#clip0_58_18652)">
        <circle cx="28" cy="35" r="16" fill="#ffffff"></circle>
        <path
            d="M22.4409 40.7315C23.8687 42.2199 25.8431 43.2223 27.9393 43.2223C30.5517 43.2223 32.1008 41.9162 32.1008 39.9721C32.1008 37.937 30.6427 37.299 28.7593 36.4482L25.9041 35.2028C24.051 34.4131 21.8639 32.9854 21.8639 30.0692C21.8639 27.0317 24.5371 24.7836 28.1519 24.7836C30.5211 24.7836 32.6172 25.7863 34.0146 27.2444L32.6779 28.8845C31.4628 27.7304 29.9744 27.0014 28.1519 27.0014C25.9041 27.0014 24.4154 28.1251 24.4154 29.9175C24.4154 31.8313 26.1775 32.56 27.7266 33.2284L30.5821 34.4435C32.8905 35.4459 34.683 36.8129 34.683 39.7594C34.683 42.9186 32.0705 45.4401 27.8786 45.4401C25.0838 45.4401 22.6536 44.2857 20.9222 42.4933L22.4409 40.7315Z"
            fill="#0A171E"></path>
        <path
            d="M27.9999 19C19.1776 19 12 26.1776 12 35C12 43.8225 19.1776 51 27.9999 51C31.9126 51 35.5011 49.5875 38.2842 47.2466C37.6036 46.964 37.0133 46.5147 36.5592 45.9452C34.1973 47.7963 31.2264 48.9041 27.9999 48.9041C20.3331 48.9041 14.0959 42.6667 14.0959 35C14.0959 27.3333 20.3331 21.0959 27.9999 21.0959C35.6666 21.0959 41.9041 27.3333 41.9041 35C41.9041 36.3226 41.7145 37.601 41.3679 38.8139C42.0784 39.0504 42.7035 39.4651 43.1958 40.0098C43.7169 38.4331 44 36.7491 44 35C44 26.1776 36.8224 19 27.9999 19Z"
            fill="#0AA1FF"></path>
        <path
            d="M39.9663 45.5025C41.3008 45.5025 42.3827 44.4206 42.3827 43.0861C42.3827 41.7516 41.3008 40.6697 39.9663 40.6697C38.6318 40.6697 37.5499 41.7516 37.5499 43.0861C37.5499 44.4206 38.6318 45.5025 39.9663 45.5025Z"
            fill="#0AA1FF"></path>
    </g>
</svg>