<svg xmlns="http://www.w3.org/2000/svg" xmlns:xlink="http://www.w3.org/1999/xlink" width="123"
    height="22" viewBox="0 0 123 22">
    <defs>
        <path id="rvj0k51jla" d="M0 0L14.593 0 14.593 21.903 0 21.903z" />
        <path id="ca3ienxevc" d="M0 0L6.065 0 6.065 6.064 0 6.064z" />
    </defs>
    <g fill="none" fill-rule="evenodd">
        <g>
            <g>
                <g>
                    <g
                        transform="translate(-136.000000, -3893.000000) translate(135.000000, 3893.000000) translate(1.000000, 0.000000)">
                        <mask id="gm063nixmb" fill="#fff">
                            <use xlink:href="#rvj0k51jla" />
                        </mask>
                        <path fill="#FFF"
                            d="M1.61 16.91c1.515 1.579 3.608 2.642 5.831 2.642 2.77 0 4.413-1.385 4.413-3.446 0-2.159-1.546-2.835-3.543-3.737l-3.028-1.32C3.318 10.21.998 8.696.998 5.604.998 2.384 3.833 0 7.667 0c2.512 0 4.735 1.063 6.217 2.61l-1.418 1.738c-1.288-1.223-2.867-1.996-4.8-1.996-2.383 0-3.962 1.191-3.962 3.092 0 2.03 1.869 2.802 3.512 3.51l3.028 1.289c2.448 1.063 4.349 2.512 4.349 5.637 0 3.35-2.77 6.023-7.216 6.023-2.964 0-5.54-1.224-7.377-3.124l1.61-1.868z"
                            mask="url(#gm063nixmb)" />
                    </g>
                    <path fill="#FFF"
                        d="M17.916 5.862h2.674v9.567c0 2.931.87 4.188 2.931 4.188 1.61 0 2.738-.806 4.22-2.642V5.862h2.642v15.655h-2.191l-.226-2.448h-.096c-1.45 1.707-2.996 2.835-5.154 2.835-3.318 0-4.8-2.127-4.8-6.12V5.861zM34.704 17.974c1.352 1.094 2.737 1.868 4.606 1.868 2.062 0 3.092-1.095 3.092-2.448 0-1.61-1.868-2.32-3.575-2.964-2.223-.805-4.671-1.868-4.671-4.509 0-2.512 1.997-4.445 5.38-4.445 1.965 0 3.672.805 4.863 1.772l-1.256 1.675c-1.063-.806-2.19-1.386-3.575-1.386-1.965 0-2.867 1.063-2.867 2.255 0 1.45 1.707 2.03 3.479 2.706 2.255.837 4.767 1.771 4.767 4.735 0 2.544-2.03 4.67-5.734 4.67-2.223 0-4.349-.934-5.83-2.158l1.32-1.771zM49.355 8.02h-2.32V6.024l2.449-.16.322-4.381h2.222v4.38h4.22v2.159h-4.22v8.696c0 1.933.612 3.028 2.416 3.028.548 0 1.257-.225 1.772-.418l.515 1.997c-.87.29-1.932.58-2.899.58-3.35 0-4.477-2.127-4.477-5.219V8.021zM69.4 12.53c0-3.189-1.417-4.96-3.865-4.96-2.19 0-4.188 1.804-4.51 4.96h8.376zm-3.93-7.054c3.995 0 6.25 2.867 6.25 7.344 0 .548-.032 1.063-.096 1.45H61.058c.193 3.382 2.222 5.507 5.218 5.507 1.482 0 2.739-.483 3.898-1.224l.934 1.74c-1.353.87-3.028 1.61-5.154 1.61-4.188 0-7.505-3.06-7.505-8.181 0-5.121 3.446-8.246 7.022-8.246zM75.333 5.862h2.19l.225 2.255h.097c1.353-1.482 2.996-2.64 4.864-2.64 2.384 0 3.672 1.126 4.317 2.994 1.642-1.771 3.253-2.995 5.154-2.995 3.22 0 4.767 2.126 4.767 6.12v9.92h-2.641V11.95c0-2.93-.935-4.187-2.899-4.187-1.224 0-2.48.805-3.93 2.416v11.338h-2.642V11.95c0-2.93-.934-4.187-2.93-4.187-1.16 0-2.481.805-3.931 2.416v11.338h-2.641V5.862zM105.473 19.777c1.514 0 2.771-.74 4.285-2.093v-4.349c-5.251.645-7.022 1.933-7.022 3.93 0 1.771 1.191 2.512 2.737 2.512m4.285-8.18c0-1.998-.677-3.93-3.222-3.93-1.835 0-3.446.837-4.67 1.674l-1.063-1.836c1.45-.934 3.64-2.029 6.152-2.029 3.834 0 5.444 2.545 5.444 6.442v9.599h-2.19l-.226-1.868h-.064c-1.514 1.224-3.253 2.254-5.186 2.254-2.641 0-4.607-1.643-4.607-4.445 0-3.414 2.964-5.121 9.632-5.862"
                        transform="translate(-136.000000, -3893.000000) translate(135.000000, 3893.000000) translate(1.000000, 0.000000)" />
                    <g
                        transform="translate(-136.000000, -3893.000000) translate(135.000000, 3893.000000) translate(1.000000, 0.000000) translate(116.051347, 15.935941)">
                        <mask id="h9q026iskd" fill="#fff">
                            <use xlink:href="#ca3ienxevc" />
                        </mask>
                        <path fill="#00B0FD"
                            d="M3.053 0c1.71 0 3.012 1.283 3.012 3.032 0 1.75-1.303 3.032-3.012 3.032C1.343 6.064 0 4.781 0 3.032 0 1.282 1.343 0 3.053 0"
                            mask="url(#h9q026iskd)" />
                    </g>
                </g>
            </g>
        </g>
    </g>
</svg>